<svg xmlns="http://www.w3.org/2000/svg" width="256" height="256" viewBox="0 0 100 100"><rect width="100" height="100" rx="20" fill="#0d6efd"/><path d="M26.21 68.92q5.09 0 7.72-2.31 2.62-2.32 2.62-5.97 0-3.19-2.02-5.17-2.01-1.97-6.34-3.27l-6.61-1.97q-4.87-1.45-7.64-4.26-2.78-2.81-2.78-7.6 0-2.89 1.11-5.2 1.1-2.32 3.15-3.92 2.05-1.59 4.9-2.47 2.85-.87 6.42-.87 3.04 0 5.67.49 2.62.5 4.56 1.37 1.93.87 3 1.94 1.06 1.06 1.06 2.2 0 1.07-.53 1.83t-1.37 1.21q-1.97-1.52-5.13-2.66-3.15-1.14-7.03-1.14-4.48 0-7.03 1.9-2.54 1.9-2.54 5.32 0 2.66 1.82 4.33 1.82 1.68 6.08 2.89l4.64 1.37q6 1.75 9.46 4.9 3.46 3.16 3.46 8.78 0 6-4.34 9.73-4.33 3.72-12.31 3.72-3.49 0-6.34-.61-2.85-.6-4.87-1.59-2.01-.99-3.11-2.17-1.11-1.18-1.11-2.32 0-1.29.8-2.16.8-.88 1.86-1.26.84.84 2.06 1.71 1.21.88 2.81 1.6 1.59.72 3.57 1.18 1.98.45 4.33.45zm56.17 1.98l-3.42-10.11H58.59q-.53 1.52-1.14 3.31-.61 1.78-1.18 3.49-.57 1.71-1.1 3.2-.53 1.48-.84 2.47-1.06.45-2.51.45-1.21 0-2.16-.64-.95-.65-.95-2.09 0-.69.23-1.41.22-.72.53-1.56 1.14-3.19 2.92-8.21 1.79-5.01 3.88-10.67 2.09-5.67 4.26-11.4 2.16-5.74 3.99-10.3.6-.31 1.82-.61 1.22-.3 2.51-.3 1.52 0 2.92.45 1.41.46 1.79 1.52 1.82 4.41 3.91 10.07t4.22 11.59q2.13 5.93 4.07 11.67 1.94 5.74 3.46 10.37-.61.69-1.45 1.1-.83.42-1.9.42-1.44 0-2.2-.64-.76-.65-1.29-2.17zm-13.3-39.22h-.31q-.83 2.28-1.9 5.21-1.06 2.93-2.2 6.12-1.14 3.19-2.28 6.46t-2.13 6.23h17.1q-1.14-3.42-2.36-6.88-1.21-3.46-2.31-6.65-1.11-3.19-2.06-5.89-.95-2.7-1.55-4.6z" fill="#fff"/></svg>