<svg xmlns="http://www.w3.org/2000/svg" width="32" height="32"><path d="M6.398 0h19.204A6.402 6.402 0 0132 6.398v19.204A6.402 6.402 0 0125.602 32H6.398A6.402 6.402 0 010 25.602V6.398A6.402 6.402 0 016.398 0zm0 0" fill="#0d6efd"/><path d="M8.387 22.055c1.086 0 1.91-.246 2.472-.739.559-.496.836-1.132.836-1.91 0-.683-.215-1.234-.644-1.656-.43-.418-1.106-.77-2.031-1.047l-2.114-.629c-1.039-.308-1.855-.765-2.445-1.363-.594-.602-.89-1.41-.89-2.434 0-.617.12-1.172.355-1.664A3.48 3.48 0 014.934 9.36a4.86 4.86 0 011.57-.789c.605-.187 1.293-.277 2.055-.277.648 0 1.25.05 1.812.156a6.46 6.46 0 011.461.438c.41.183.73.39.957.62.227.227.34.462.34.704 0 .23-.055.422-.168.586-.113.16-.262.293-.438.387-.421-.325-.968-.61-1.644-.852-.672-.242-1.422-.363-2.25-.363-.953 0-1.703.203-2.25.605-.54.406-.813.973-.813 1.703 0 .57.196 1.032.586 1.387.387.36 1.035.668 1.946.926l1.484.437c1.277.375 2.29.895 3.027 1.567.739.676 1.106 1.613 1.106 2.812 0 1.278-.461 2.317-1.387 3.114-.926.793-2.238 1.187-3.941 1.187a9.524 9.524 0 01-2.028-.195 6.518 6.518 0 01-1.558-.508c-.43-.211-.762-.442-.996-.695-.239-.25-.356-.497-.356-.743 0-.273.086-.503.258-.691a1.45 1.45 0 01.594-.402c.18.18.398.363.66.547.258.187.559.359.898.511.34.157.72.282 1.141.38.426.097.887.144 1.387.144zm17.976.633l-1.097-3.235H18.75l-.367 1.059c-.13.379-.254.754-.375 1.117s-.242.707-.352 1.023c-.113.317-.203.578-.27.79a2.028 2.028 0 01-.804.144c-.258 0-.488-.066-.691-.203-.204-.14-.305-.363-.305-.668 0-.149.027-.3.074-.453.047-.153.106-.32.172-.5.242-.68.555-1.555.934-2.625.382-1.07.793-2.207 1.242-3.414.445-1.211.898-2.426 1.363-3.649.461-1.226.887-2.324 1.274-3.297.128-.066.324-.132.585-.195.258-.062.528-.094.801-.094.324 0 .637.047.934.14.3.102.492.263.574.49a95.81 95.81 0 011.25 3.222 407.58 407.58 0 011.352 3.707c.453 1.265.89 2.512 1.3 3.734.414 1.227.786 2.332 1.11 3.32a1.478 1.478 0 01-.465.352 1.32 1.32 0 01-.61.133c-.304 0-.538-.066-.703-.203-.16-.14-.296-.371-.41-.695zm-4.258-12.551h-.097a362.727 362.727 0 00-1.313 3.625c-.242.683-.488 1.37-.73 2.07-.242.695-.469 1.36-.684 1.992h5.473c-.242-.73-.492-1.465-.754-2.203a805.687 805.687 0 00-1.398-4.012 47.795 47.795 0 01-.497-1.472zm0 0" fill="#fff"/></svg>